<svg xmlns="http://www.w3.org/2000/svg" width="32" height="32" viewBox="0 0 32 32">
  <rect width="32" height="32" rx="8" fill="#c8a052"/>
  <g transform="translate(6, 6)" stroke="white" stroke-width="1.5" fill="none" stroke-linecap="round" stroke-linejoin="round">
    <path d="m16 2-2.3 2.3a3 3 0 0 0 0 4.2l1.8 1.8a3 3 0 0 0 4.2 0L22 8"/>
    <path d="M15 15 3.3 3.3a4.2 4.2 0 0 0 0 6l7.3 7.3a4.2 4.2 0 0 0 6 0L15 15Zm0 0 7 7"/>
    <path d="m2.1 21.8 6.4-6.3"/>
    <path d="m19 5.7-1.4-1.4"/>
  </g>
</svg>